<?xml version="1.0" encoding="UTF-8"?>
<svg id="Layer_1" data-name="Layer 1" xmlns="http://www.w3.org/2000/svg" viewBox="0 0 1000 1000">
  <defs>
    <style>
      .cls-1 {
        fill: #fff;
      }

      .cls-2 {
        fill: #231f20;
      }
    </style>
  </defs>
  <circle class="cls-2" cx="500" cy="500" r="500"/>
  <g>
    <path class="cls-1" d="M391.57,613.46c0,48.06-12.21,83.74-36.61,107.03-24.41,23.28-62.13,34.93-113.18,34.93-17.89,0-35.77-1.59-53.65-4.75-17.89-3.17-34.47-7.36-49.74-12.58l14.53-69.86c13.04,5.21,26.73,9.31,41.08,12.3,14.34,2.98,30.64,4.47,48.9,4.47,23.84,0,40.7-5.22,50.58-15.65,9.87-10.44,14.81-23.84,14.81-40.24v-10.62c-8.94,4.1-18.16,7.18-27.67,9.22-9.5,2.05-19.84,3.07-31.02,3.07-40.62,0-71.73-12.01-93.34-36.05-21.61-24.03-32.42-57.65-32.42-100.88,0-21.6,3.35-41.26,10.06-58.96,6.71-17.69,16.49-32.88,29.34-45.55,12.86-12.66,28.59-22.44,47.23-29.34,18.63-6.89,39.68-10.34,63.16-10.34,10.06,0,20.4,.47,31.02,1.4,10.62,.93,21.14,2.15,31.58,3.63,10.43,1.49,20.4,3.27,29.9,5.31,9.5,2.05,17.97,4.19,25.43,6.43v247.03Zm-182.76-119.61c0,46.58,18.81,69.86,56.45,69.86,8.57,0,16.58-1.12,24.03-3.35,7.45-2.24,13.78-4.84,19-7.83v-133.02c-4.1-.74-8.94-1.4-14.53-1.96-5.59-.56-12.11-.84-19.56-.84-21.99,0-38.38,7.27-49.18,21.8-10.81,14.53-16.21,32.98-16.21,55.33Z"/>
    <path class="cls-1" d="M631.34,494.41c0-26.83-3.45-45.83-10.34-57.01-6.9-11.18-18.72-16.77-35.49-16.77-5.22,0-10.62,.28-16.21,.84-5.59,.56-10.99,1.21-16.21,1.96v226.91h-83.28V366.42c7.07-1.86,15.37-3.82,24.87-5.87,9.5-2.04,19.56-3.91,30.18-5.59,10.62-1.68,21.52-2.98,32.7-3.91,11.18-.93,22.16-1.4,32.97-1.4,21.24,0,38.47,2.71,51.7,8.11,13.22,5.41,24.12,11.83,32.7,19.28,11.92-8.57,25.61-15.27,41.08-20.12,15.46-4.84,29.71-7.27,42.76-7.27,23.47,0,42.76,3.27,57.85,9.78,15.09,6.52,27.11,15.74,36.05,27.67,8.94,11.93,15.09,26.08,18.44,42.48,3.35,16.4,5.03,34.65,5.03,54.77v165.99h-83.28v-155.93c0-26.83-3.45-45.83-10.34-57.01-6.9-11.18-18.72-16.77-35.49-16.77-4.47,0-10.72,1.12-18.72,3.35-8.02,2.24-14.63,5.03-19.84,8.38,2.6,8.57,4.28,17.6,5.03,27.11,.74,9.5,1.12,19.66,1.12,30.46v160.4h-83.28v-155.93Z"/>
  </g>
</svg>