<?xml version="1.0" encoding="UTF-8"?>
<svg id="Layer_1" data-name="Layer 1" xmlns="http://www.w3.org/2000/svg" viewBox="0 0 1000 1000">
  <defs>
    <style>
      .cls-1 {
        fill: #fff;
      }

      .cls-2 {
        fill: #231f20;
      }
    </style>
  </defs>
  <circle class="cls-2" cx="500" cy="500" r="500"/>
  <g>
    <path class="cls-1" d="M306.87,384.74c-37.23,0-64.12,10.33-80.69,30.99-16.57,20.67-24.84,48.92-24.84,84.78,0,17.42,2.05,33.22,6.15,47.39,4.1,14.18,10.25,26.38,18.44,36.63,8.2,10.25,18.44,18.18,30.74,23.82,12.29,5.63,26.64,8.45,43.03,8.45,8.88,0,16.47-.17,22.8-.51,6.32-.34,11.86-1.02,16.65-2.05v-123.46h79.91v175.71c-9.57,3.76-24.93,7.77-46.1,12.04-21.18,4.27-47.31,6.4-78.38,6.4-26.64,0-50.8-4.1-72.49-12.29-21.69-8.2-40.21-20.15-55.58-35.86-15.37-15.7-27.24-35-35.6-57.89-8.37-22.88-12.55-49-12.55-78.38s4.61-56.01,13.83-78.89c9.22-22.88,21.85-42.26,37.91-58.14,16.05-15.88,34.91-27.92,56.61-36.12,21.68-8.2,44.82-12.29,69.42-12.29,16.73,0,31.84,1.11,45.34,3.33,13.49,2.22,25.1,4.79,34.84,7.68,9.73,2.91,17.75,5.89,24.08,8.97,6.32,3.07,10.84,5.47,13.58,7.17l-23.05,64.04c-10.93-5.8-23.48-10.84-37.65-15.11-14.18-4.27-29.63-6.4-46.36-6.4Z"/>
    <path class="cls-1" d="M587.6,323.26c6.16,11.27,13.26,25.19,21.32,41.75,8.04,16.57,16.43,34.5,25.17,53.79,8.73,19.3,17.38,39.02,25.94,59.17,8.56,20.15,16.6,39.11,24.14,56.86,7.53-17.75,15.58-36.71,24.14-56.86,8.56-20.15,17.2-39.87,25.93-59.17,8.73-19.29,17.12-37.22,25.17-53.79,8.04-16.56,15.15-30.48,21.32-41.75h72.74c3.41,23.57,6.57,49.95,9.48,79.15,2.9,29.2,5.46,59.6,7.68,91.19,2.22,31.59,4.27,63.27,6.15,95.03,1.87,31.76,3.5,61.65,4.87,89.65h-77.87c-1.02-34.49-2.39-72.06-4.1-112.7-1.71-40.64-4.27-81.62-7.68-122.95-6.17,14.35-13.02,30.22-20.56,47.64-7.54,17.42-14.99,34.84-22.36,52.25-7.36,17.42-14.47,34.07-21.32,49.95-6.85,15.88-12.68,29.46-17.47,40.73h-55.84c-4.8-11.27-10.62-24.84-17.47-40.73-6.85-15.88-13.97-32.53-21.33-49.95-7.36-17.42-14.82-34.84-22.35-52.25-7.54-17.42-14.39-33.3-20.56-47.64-3.42,41.33-5.98,82.31-7.69,122.95-1.71,40.65-3.07,78.21-4.1,112.7h-77.87c1.36-28,2.98-57.89,4.87-89.65,1.87-31.76,3.92-63.43,6.15-95.03,2.22-31.59,4.78-61.99,7.69-91.19,2.9-29.2,6.06-55.58,9.48-79.15h76.33Z"/>
  </g>
</svg>